# xmcd
#
# Track frame offsets: 
#        150
#        24970
#        47778
#        69736
#        85444
#        110177
#        130697
#        154517
#        179640
#        197114
#        226603
#        248429
#        266009
#
# Disc length: 3776 seconds
#
# Revision: 1
# Processed by: cddbd v1.5.2PL0 Copyright (c) Steve Scherf et al.
# Submitted via: ExactAudioCopy v1.0b3
#
DISCID=ac0ebe0d
DTITLE=晓花 - DTS ES 正品 再现神话
DYEAR=2006
DGENRE=DTS ES
TTITLE0=爱值得
TTITLE1=风雨无阻
TTITLE2=烟火花
TTITLE3=一千零一夜
TTITLE4=这样的夜里我容易喝醉
TTITLE5=特别的爱给特别的你
TTITLE6=被遗忘的时光
TTITLE7=寂寞公路
TTITLE8=鬼迷心窍
TTITLE9=你在他乡还好吗
TTITLE10=相信感觉
TTITLE11=冷酷到底
TTITLE12=男人海洋
EXTD=
EXTT0=
EXTT1=
EXTT2=
EXTT3=
EXTT4=
EXTT5=
EXTT6=
EXTT7=
EXTT8=
EXTT9=
EXTT10=
EXTT11=
EXTT12=
PLAYORDER=
